<svg width="16" height="16" viewBox="0 0 16 16" fill="none" xmlns="http://www.w3.org/2000/svg">
<mask id="mask0_467_33920" style="mask-type:alpha" maskUnits="userSpaceOnUse" x="0" y="0" width="16" height="16">
<rect width="16" height="16" fill="#D9D9D9"/>
</mask>
<g mask="url(#mask0_467_33920)">
<path d="M3.4615 14.1539C3.29506 14.1539 3.14639 14.087 3.0155 13.9532C2.88472 13.8194 2.81934 13.6701 2.81934 13.5052V11.889C2.81934 10.9655 3.1065 10.1497 3.68084 9.44169C4.25517 8.73369 4.99361 8.28219 5.89617 8.08719C5.48428 8.37608 5.16506 8.73975 4.9385 9.17819C4.71195 9.61664 4.59867 10.0865 4.59867 10.5879V13.5039C4.59867 13.6164 4.61534 13.7289 4.64867 13.8414C4.682 13.9539 4.73334 14.0581 4.80267 14.1539H3.4615ZM5.72284 14.1539C5.5485 14.1539 5.39728 14.0895 5.26917 13.9607C5.14106 13.832 5.077 13.6802 5.077 13.5052V10.5885C5.077 9.8663 5.32956 9.2543 5.83467 8.75252C6.33978 8.25086 6.95345 8.00002 7.67567 8.00002H10.587C11.3059 8.00002 11.9162 8.25086 12.418 8.75252C12.9197 9.2543 13.1705 9.8663 13.1705 10.5885V11.5654C13.1705 12.2876 12.9197 12.8995 12.418 13.4012C11.9162 13.903 11.3042 14.1539 10.582 14.1539H5.72284ZM8 6.70253C7.32378 6.70253 6.75006 6.4673 6.27884 5.99686C5.8075 5.5263 5.57184 4.95214 5.57184 4.27436C5.57184 3.59658 5.8075 3.02247 6.27884 2.55202C6.75006 2.08147 7.32378 1.84619 8 1.84619C8.67622 1.84619 9.24995 2.08147 9.72117 2.55202C10.1925 3.02247 10.4282 3.59658 10.4282 4.27436C10.4282 4.95214 10.1925 5.5263 9.72117 5.99686C9.24995 6.4673 8.67622 6.70253 8 6.70253Z" fill="#314158"/>
</g>
</svg>
