<svg width="24" height="24" viewBox="0 0 24 24" fill="none" xmlns="http://www.w3.org/2000/svg">
<mask id="mask0_516_4591" style="mask-type:alpha" maskUnits="userSpaceOnUse" x="0" y="0" width="24" height="24">
<rect width="24" height="24" fill="#D9D9D9"/>
</mask>
<g mask="url(#mask0_516_4591)">
<path d="M13.1634 13.6537V12.4037H10.4712C10.2423 12.4037 10.0505 12.3264 9.89568 12.1717C9.74084 12.0169 9.66343 11.8251 9.66343 11.5962V10.0385C9.66343 9.78783 9.74818 9.57775 9.91768 9.40825C10.0872 9.23858 10.2973 9.15375 10.5479 9.15375H13.7594C13.9318 9.15375 14.0742 9.21008 14.1867 9.32275C14.2993 9.43525 14.3557 9.5775 14.3557 9.7495C14.3557 9.92166 14.2993 10.0642 14.1867 10.177C14.0742 10.2898 13.9318 10.3462 13.7594 10.3462H10.8557V11.5962H13.5479C13.7768 11.5962 13.9686 11.6736 14.1234 11.8282C14.2783 11.9831 14.3557 12.1749 14.3557 12.4037V13.9615C14.3557 14.2122 14.2709 14.4222 14.1014 14.5917C13.9318 14.7614 13.7217 14.8462 13.4712 14.8462H10.2594C10.0873 14.8462 9.94493 14.7899 9.83243 14.6772C9.71976 14.5647 9.66343 14.4225 9.66343 14.2505C9.66343 14.0783 9.71976 13.9358 9.83243 13.823C9.94493 13.7102 10.0873 13.6537 10.2594 13.6537H13.1634ZM19.6154 13.6537V12.4037H16.9229C16.6941 12.4037 16.5023 12.3264 16.3474 12.1717C16.1928 12.0169 16.1154 11.8251 16.1154 11.5962V10.0385C16.1154 9.78783 16.2002 9.57775 16.3697 9.40825C16.5392 9.23858 16.7493 9.15375 16.9999 9.15375H20.2114C20.3836 9.15375 20.526 9.21008 20.6387 9.32275C20.7513 9.43525 20.8077 9.5775 20.8077 9.7495C20.8077 9.92166 20.7513 10.0642 20.6387 10.177C20.526 10.2898 20.3836 10.3462 20.2114 10.3462H17.3077V11.5962H19.9999C20.2288 11.5962 20.4206 11.6736 20.5754 11.8282C20.7303 11.9831 20.8077 12.1749 20.8077 12.4037V13.9615C20.8077 14.2122 20.7228 14.4222 20.5532 14.5917C20.3837 14.7614 20.1736 14.8462 19.9229 14.8462H16.7114C16.5393 14.8462 16.3968 14.7899 16.2842 14.6772C16.1717 14.5647 16.1154 14.4225 16.1154 14.2505C16.1154 14.0783 16.1717 13.9358 16.2842 13.823C16.3968 13.7102 16.5393 13.6537 16.7114 13.6537H19.6154ZM4.09618 14.8462C3.84551 14.8462 3.63543 14.7614 3.46593 14.5917C3.29626 14.4222 3.21143 14.2122 3.21143 13.9615V10.0385C3.21143 9.79366 3.29626 9.585 3.46593 9.4125C3.63543 9.24 3.84551 9.15375 4.09618 9.15375H7.01918C7.26401 9.15375 7.47268 9.24 7.64518 9.4125C7.81751 9.585 7.90368 9.79366 7.90368 10.0385V10.5827C7.90368 10.7442 7.84309 10.8798 7.72193 10.9895C7.60093 11.099 7.46143 11.1537 7.30343 11.1537C7.13243 11.1537 6.99101 11.0975 6.87918 10.985C6.76734 10.8723 6.71143 10.7299 6.71143 10.5577V10.3462H4.40368V13.6537H6.71143V13.4422C6.71143 13.2871 6.76734 13.149 6.87918 13.028C6.99101 12.9068 7.13243 12.8462 7.30343 12.8462C7.46143 12.8462 7.60093 12.9068 7.72193 13.028C7.84309 13.149 7.90368 13.2871 7.90368 13.4422V13.9615C7.90368 14.2122 7.81751 14.4222 7.64518 14.5917C7.47268 14.7614 7.26401 14.8462 7.01918 14.8462H4.09618Z" fill="#314158"/>
</g>
</svg>
