<svg width="16" height="16" viewBox="0 0 16 16" fill="none" xmlns="http://www.w3.org/2000/svg">
<mask id="mask0_467_33859" style="mask-type:alpha" maskUnits="userSpaceOnUse" x="0" y="0" width="16" height="16">
<rect width="16" height="16" fill="#D9D9D9"/>
</mask>
<g mask="url(#mask0_467_33859)">
<path d="M7.39752 7.11048V2.84131H14.3334V7.11048H7.39752ZM1.66669 12.8413V8.57214H7.93585V12.8413H1.66669ZM1.66669 7.11048V2.84131H5.93585V7.11048H1.66669ZM11.2435 14.1105L11.1077 13.3156C10.9359 13.2644 10.7746 13.1997 10.6237 13.1215C10.4729 13.0433 10.33 12.9405 10.1949 12.8131L9.43335 13.0746L8.92052 12.2361L9.53335 11.7105C9.48547 11.5234 9.46152 11.3362 9.46152 11.149C9.46152 10.9618 9.48547 10.7746 9.53335 10.5875L8.92052 10.0618L9.43335 9.22331L10.1949 9.48498C10.3256 9.35753 10.4675 9.25475 10.6205 9.17664C10.7735 9.09842 10.9359 9.03364 11.1077 8.98231L11.2435 8.18748H12.2435L12.3795 8.98231C12.5513 9.03364 12.7137 9.09842 12.8667 9.17664C13.0197 9.25475 13.1616 9.35753 13.2924 9.48498L14.0539 9.22331L14.5667 10.0618L13.9539 10.5875C14.0017 10.7746 14.0257 10.9618 14.0257 11.149C14.0257 11.3362 14.0017 11.5234 13.9539 11.7105L14.5667 12.2361L14.0539 13.0746L13.2924 12.8131C13.1572 12.9405 13.0143 13.0433 12.8635 13.1215C12.7126 13.1997 12.5513 13.2644 12.3795 13.3156L12.2435 14.1105H11.2435ZM12.7237 12.1291C12.9934 11.8595 13.1282 11.5328 13.1282 11.149C13.1282 10.7652 12.9934 10.4385 12.7237 10.1688C12.454 9.89914 12.1273 9.76431 11.7435 9.76431C11.3599 9.76431 11.0332 9.89914 10.7635 10.1688C10.4939 10.4385 10.359 10.7652 10.359 11.149C10.359 11.5328 10.4939 11.8595 10.7635 12.1291C11.0332 12.3988 11.3599 12.5336 11.7435 12.5336C12.1273 12.5336 12.454 12.3988 12.7237 12.1291Z" fill="#314158"/>
</g>
</svg>
