<svg width="16" height="16" viewBox="0 0 16 16" fill="none" xmlns="http://www.w3.org/2000/svg">
<mask id="mask0_506_4542" style="mask-type:alpha" maskUnits="userSpaceOnUse" x="0" y="0" width="16" height="16">
<rect width="16" height="16" fill="#D9D9D9"/>
</mask>
<g mask="url(#mask0_506_4542)">
<path d="M2.3335 13.6666V2.33325H13.6668V13.6666H2.3335ZM3.3335 12.6666H5.7745V10.2256H3.3335V12.6666ZM6.7745 12.6666H9.22583V10.2256H6.7745V12.6666ZM10.2258 12.6666H12.6668V10.2256H10.2258V12.6666ZM3.3335 9.22558H5.7745V6.77425H3.3335V9.22558ZM6.7745 9.22558H9.22583V6.77425H6.7745V9.22558ZM10.2258 9.22558H12.6668V6.77425H10.2258V9.22558ZM3.3335 5.77425H5.7745V3.33325H3.3335V5.77425ZM6.7745 5.77425H9.22583V3.33325H6.7745V5.77425ZM10.2258 5.77425H12.6668V3.33325H10.2258V5.77425Z" fill="#314158"/>
</g>
</svg>
