<svg width="16" height="16" viewBox="0 0 16 16" fill="none" xmlns="http://www.w3.org/2000/svg">
<mask id="mask0_467_33957" style="mask-type:alpha" maskUnits="userSpaceOnUse" x="0" y="0" width="16" height="16">
<rect width="16" height="16" fill="#D9D9D9"/>
</mask>
<g mask="url(#mask0_467_33957)">
<path d="M2.57052 12.4887C2.2073 12.1255 2.02569 11.6832 2.02569 11.1619H0.897522V2.99524H11.1795V5.53374H12.9487L15.1025 8.41841V11.1619H13.8975C13.8975 11.6832 13.7159 12.1255 13.3525 12.4887C12.9893 12.8521 12.547 13.0337 12.0257 13.0337C11.5044 13.0337 11.062 12.8521 10.6987 12.4887C10.3355 12.1255 10.1539 11.6832 10.1539 11.1619H5.76919C5.76919 11.6832 5.58758 12.1255 5.22436 12.4887C4.86113 12.8521 4.41886 13.0337 3.89752 13.0337C3.37608 13.0337 2.93374 12.8521 2.57052 12.4887ZM4.51669 11.7811C4.68502 11.6127 4.76919 11.4064 4.76919 11.1619C4.76919 10.9175 4.68502 10.711 4.51669 10.5426C4.34836 10.3742 4.14197 10.2901 3.89752 10.2901C3.65308 10.2901 3.44663 10.3742 3.27819 10.5426C3.10986 10.711 3.02569 10.9175 3.02569 11.1619C3.02569 11.4064 3.10986 11.6127 3.27819 11.7811C3.44663 11.9495 3.65308 12.0337 3.89752 12.0337C4.14197 12.0337 4.34836 11.9495 4.51669 11.7811ZM12.6449 11.7811C12.8133 11.6127 12.8975 11.4064 12.8975 11.1619C12.8975 10.9175 12.8133 10.711 12.6449 10.5426C12.4765 10.3742 12.2701 10.2901 12.0257 10.2901C11.7812 10.2901 11.5748 10.3742 11.4064 10.5426C11.238 10.711 11.1539 10.9175 11.1539 11.1619C11.1539 11.4064 11.238 11.6127 11.4064 11.7811C11.5748 11.9495 11.7812 12.0337 12.0257 12.0337C12.2701 12.0337 12.4765 11.9495 12.6449 11.7811ZM11.1795 8.82857H14.1667L12.4359 6.53374H11.1795V8.82857Z" fill="#314158"/>
</g>
</svg>
