<svg width="16" height="16" viewBox="0 0 16 16" fill="none" xmlns="http://www.w3.org/2000/svg">
<mask id="mask0_467_33938" style="mask-type:alpha" maskUnits="userSpaceOnUse" x="0" y="0" width="16" height="16">
<rect width="16" height="16" fill="#D9D9D9"/>
</mask>
<g mask="url(#mask0_467_33938)">
<path d="M5.33333 12.3333C4.12622 12.3333 3.10222 11.913 2.26133 11.0723C1.42044 10.2317 1 9.20802 1 8.00113C1 6.79435 1.42044 5.77024 2.26133 4.92879C3.10222 4.08735 4.12622 3.66663 5.33333 3.66663H10.6667C11.8738 3.66663 12.8978 4.08696 13.7387 4.92763C14.5796 5.76818 15 6.7919 15 7.99879C15 9.20557 14.5796 10.2297 13.7387 11.0711C12.8978 11.9126 11.8738 12.3333 10.6667 12.3333H5.33333ZM6 7.49996C6 8.13496 6.21067 8.69352 6.632 9.17563C7.05345 9.65763 7.50944 10.1033 8 10.5128C8.49056 10.1033 8.94656 9.65763 9.368 9.17563C9.78933 8.69352 10 8.13496 10 7.49996C10 6.94607 9.80522 6.47429 9.41567 6.08463C9.02611 5.69485 8.5545 5.49996 8.00083 5.49996C7.44728 5.49996 6.97544 5.69485 6.58533 6.08463C6.19511 6.47429 6 6.94607 6 7.49996ZM7.525 7.80829C7.39722 7.68052 7.33333 7.52218 7.33333 7.33329C7.33333 7.1444 7.39722 6.98607 7.525 6.85829C7.65278 6.73051 7.81111 6.66663 8 6.66663C8.18889 6.66663 8.34722 6.73051 8.475 6.85829C8.60278 6.98607 8.66667 7.1444 8.66667 7.33329C8.66667 7.52218 8.60278 7.68052 8.475 7.80829C8.34722 7.93607 8.18889 7.99996 8 7.99996C7.81111 7.99996 7.65278 7.93607 7.525 7.80829Z" fill="#314158"/>
</g>
</svg>
