<svg width="16" height="16" viewBox="0 0 16 16" fill="none" xmlns="http://www.w3.org/2000/svg">
<mask id="mask0_467_33904" style="mask-type:alpha" maskUnits="userSpaceOnUse" x="0" y="0" width="16" height="16">
<rect width="16" height="16" fill="#D9D9D9"/>
</mask>
<g mask="url(#mask0_467_33904)">
<path d="M8.85185 7.55623C9.08741 7.32078 9.20518 7.03684 9.20518 6.70439C9.20518 6.37195 9.08741 6.08795 8.85185 5.85239C8.61641 5.61695 8.33246 5.49923 8.00002 5.49923C7.66757 5.49923 7.38363 5.61695 7.14818 5.85239C6.91263 6.08795 6.79485 6.37195 6.79485 6.70439C6.79485 7.03684 6.91263 7.32078 7.14818 7.55623C7.38363 7.79167 7.66757 7.90939 8.00002 7.90939C8.33246 7.90939 8.61641 7.79167 8.85185 7.55623ZM8.00002 14.3389C6.32224 12.8851 5.06413 11.5322 4.22568 10.2801C3.38724 9.02784 2.96802 7.87823 2.96802 6.83123C2.96802 5.29278 3.46563 4.04728 4.46085 3.09473C5.45618 2.14217 6.63591 1.66589 8.00002 1.66589C9.36413 1.66589 10.5439 2.14217 11.5392 3.09473C12.5344 4.04728 13.032 5.29278 13.032 6.83123C13.032 7.87823 12.6128 9.02784 11.7744 10.2801C10.9359 11.5322 9.6778 12.8851 8.00002 14.3389Z" fill="#314158"/>
</g>
</svg>
