<svg width="16" height="16" viewBox="0 0 16 16" fill="none" xmlns="http://www.w3.org/2000/svg">
<mask id="mask0_506_4540" style="mask-type:alpha" maskUnits="userSpaceOnUse" x="0" y="0" width="16" height="16">
<rect width="16" height="16" fill="#D9D9D9"/>
</mask>
<g mask="url(#mask0_506_4540)">
<path d="M6.46134 14.3334L6.20751 12.3026C6.02895 12.2428 5.84584 12.1591 5.65817 12.0514C5.47062 11.9436 5.3029 11.8282 5.15501 11.7052L3.27417 12.5001L1.73584 9.83341L3.36267 8.60391C3.34734 8.5048 3.33645 8.40525 3.33001 8.30525C3.32356 8.20525 3.32034 8.10564 3.32034 8.00641C3.32034 7.91164 3.32356 7.8153 3.33001 7.71741C3.33645 7.61953 3.34734 7.51247 3.36267 7.39625L1.73584 6.16675L3.27417 3.51292L5.14851 4.30141C5.30928 4.17408 5.4809 4.05764 5.66334 3.95208C5.84578 3.84653 6.02506 3.76169 6.20117 3.69758L6.46134 1.66675H9.53834L9.79217 3.70391C9.99217 3.77658 10.1731 3.86141 10.335 3.95841C10.497 4.05541 10.6605 4.16975 10.8255 4.30141L12.7255 3.51292L14.2638 6.16675L12.6113 7.41541C12.6352 7.52308 12.6483 7.62375 12.6505 7.71741C12.6526 7.81097 12.6537 7.90519 12.6537 8.00008C12.6537 8.09064 12.6515 8.18275 12.6472 8.27641C12.643 8.36997 12.6276 8.47703 12.6012 8.59758L14.2408 9.83341L12.7023 12.5001L10.8255 11.6987C10.6605 11.8304 10.4921 11.9469 10.3203 12.0481C10.1486 12.1494 9.97251 12.2321 9.79217 12.2962L9.53834 14.3334H6.46134ZM7.33317 13.3334H8.64351L8.88317 11.5476C9.22339 11.4587 9.53428 11.3324 9.81584 11.1687C10.0975 11.005 10.3691 10.7945 10.6307 10.5372L12.287 11.2334L12.9435 10.1001L11.4973 9.01041C11.5529 8.83775 11.5907 8.66847 11.6107 8.50258C11.6308 8.3368 11.6408 8.1693 11.6408 8.00008C11.6408 7.82653 11.6308 7.65903 11.6107 7.49758C11.5907 7.33603 11.5529 7.17103 11.4973 7.00258L12.9562 5.90008L12.2998 4.76675L10.6242 5.47308C10.4011 5.23464 10.1338 5.02397 9.82234 4.84108C9.51078 4.65819 9.19562 4.52869 8.87684 4.45258L8.66651 2.66675H7.34351L7.12284 4.44625C6.78273 4.52658 6.46867 4.64964 6.18067 4.81541C5.89256 4.9813 5.61773 5.19497 5.35617 5.45641L3.69984 4.76675L3.04351 5.90008L4.48317 6.97308C4.42762 7.1313 4.38873 7.29586 4.36651 7.46675C4.34428 7.63764 4.33317 7.81753 4.33317 8.00641C4.33317 8.17997 4.34428 8.35008 4.36651 8.51675C4.38873 8.68341 4.42551 8.84797 4.47684 9.01041L3.04351 10.1001L3.69984 11.2334L5.34984 10.5334C5.60284 10.7932 5.87334 11.006 6.16134 11.1719C6.44945 11.3377 6.76784 11.465 7.11651 11.5539L7.33317 13.3334ZM8.00751 10.0001C8.56217 10.0001 9.03417 9.80541 9.42351 9.41608C9.81284 9.02675 10.0075 8.55475 10.0075 8.00008C10.0075 7.44541 9.81284 6.97341 9.42351 6.58408C9.03417 6.19475 8.56217 6.00008 8.00751 6.00008C7.44595 6.00008 6.97223 6.19475 6.58634 6.58408C6.20045 6.97341 6.00751 7.44541 6.00751 8.00008C6.00751 8.55475 6.20045 9.02675 6.58634 9.41608C6.97223 9.80541 7.44595 10.0001 8.00751 10.0001Z" fill="#314158"/>
</g>
</svg>
