<svg width="24" height="24" viewBox="0 0 24 24" fill="none" xmlns="http://www.w3.org/2000/svg">
<mask id="mask0_516_4597" style="mask-type:alpha" maskUnits="userSpaceOnUse" x="0" y="0" width="24" height="24">
<rect width="24" height="24" fill="#D9D9D9"/>
</mask>
<g mask="url(#mask0_516_4597)">
<path d="M2.94234 19.4423L8.25784 14.127C8.60267 13.7822 9.02959 13.6098 9.53859 13.6098C10.0476 13.6098 10.4745 13.7822 10.8193 14.127L13.3078 16.6155C13.3718 16.6795 13.4488 16.7099 13.5386 16.7068C13.6283 16.7036 13.702 16.6668 13.7598 16.5963L20.0636 9.41927C20.2021 9.25393 20.3771 9.17126 20.5886 9.17126C20.8001 9.17126 20.9834 9.2456 21.1386 9.39427C21.2771 9.53277 21.3505 9.69751 21.3588 9.88851C21.3672 10.0795 21.3021 10.2526 21.1636 10.4078L14.8231 17.6403C14.4783 18.0353 14.0482 18.2436 13.5328 18.2653C13.0175 18.2871 12.5707 18.1089 12.1923 17.7308L9.75984 15.298C9.702 15.2403 9.62825 15.2115 9.53859 15.2115C9.44875 15.2115 9.375 15.2403 9.31734 15.298L4.05784 20.5578C3.89884 20.7168 3.7145 20.7978 3.50484 20.801C3.29534 20.8042 3.10784 20.7231 2.94234 20.5578C2.777 20.3923 2.69434 20.2063 2.69434 20C2.69434 19.7937 2.777 19.6078 2.94234 19.4423ZM2.94234 13.4423L8.25784 8.12702C8.60267 7.78218 9.02959 7.60977 9.53859 7.60977C10.0476 7.60977 10.4745 7.78218 10.8193 8.12702L13.3078 10.6155C13.3718 10.6795 13.4488 10.7099 13.5386 10.7068C13.6283 10.7036 13.702 10.6668 13.7598 10.5963L20.0636 3.41927C20.2021 3.25393 20.3771 3.17126 20.5886 3.17126C20.8001 3.17126 20.9834 3.2456 21.1386 3.39427C21.2771 3.53277 21.3505 3.69751 21.3588 3.88851C21.3672 4.07951 21.3021 4.2526 21.1636 4.40777L14.8231 11.6403C14.4783 12.0353 14.0482 12.2436 13.5328 12.2653C13.0175 12.2871 12.5707 12.1089 12.1923 11.7308L9.75984 9.29802C9.702 9.24035 9.62825 9.21152 9.53859 9.21152C9.44875 9.21152 9.375 9.24035 9.31734 9.29802L4.05784 14.5578C3.89884 14.7168 3.7145 14.7978 3.50484 14.801C3.29534 14.8042 3.10784 14.7231 2.94234 14.5578C2.777 14.3923 2.69434 14.2063 2.69434 14C2.69434 13.7937 2.777 13.6078 2.94234 13.4423Z" fill="#314158"/>
</g>
</svg>
