<svg width="16" height="16" viewBox="0 0 16 16" fill="none" xmlns="http://www.w3.org/2000/svg">
<mask id="mask0_467_33932" style="mask-type:alpha" maskUnits="userSpaceOnUse" x="0" y="0" width="16" height="16">
<rect width="16" height="16" fill="#D9D9D9"/>
</mask>
<g mask="url(#mask0_467_33932)">
<path d="M1.66669 13V3H14.3334V13H1.66669ZM7.56985 7.8275C7.45497 7.71261 7.39752 7.56928 7.39752 7.3975C7.39752 7.22572 7.45497 7.08233 7.56985 6.96733C7.68485 6.85233 7.82824 6.79483 8.00002 6.79483C8.1718 6.79483 8.31519 6.85233 8.43019 6.96733C8.54508 7.08233 8.60252 7.22572 8.60252 7.3975C8.60252 7.56928 8.54508 7.71261 8.43019 7.8275C8.31519 7.9425 8.1718 8 8.00002 8C7.82824 8 7.68485 7.9425 7.56985 7.8275ZM8.00002 11.0128C8.81024 10.3231 9.41452 9.68311 9.81285 9.093C10.2111 8.50278 10.4102 7.95767 10.4102 7.45767C10.4102 6.70133 10.1675 6.1005 9.68202 5.65517C9.19658 5.20983 8.63591 4.98717 8.00002 4.98717C7.36413 4.98717 6.80346 5.20983 6.31802 5.65517C5.83258 6.1005 5.58985 6.70133 5.58985 7.45767C5.58985 7.95767 5.78897 8.50278 6.18719 9.093C6.58552 9.68311 7.1898 10.3231 8.00002 11.0128Z" fill="#314158"/>
</g>
</svg>
