<svg width="16" height="16" viewBox="0 0 16 16" fill="none" xmlns="http://www.w3.org/2000/svg">
<path d="M9.92655 9.5915C10.4543 9.06272 10.7182 8.42061 10.7182 7.66517C10.7182 6.90972 10.4538 6.26811 9.92505 5.74033C9.39627 5.21256 8.75416 4.94867 7.99871 4.94867C7.24327 4.94867 6.60166 5.21306 6.07388 5.74183C5.5461 6.27061 5.28221 6.91272 5.28221 7.66817C5.28221 8.42361 5.5466 9.06522 6.07538 9.593C6.60416 10.1208 7.24627 10.3847 8.00171 10.3847C8.75716 10.3847 9.39877 10.1203 9.92655 9.5915ZM6.72521 8.94167C6.37521 8.59167 6.20021 8.16667 6.20021 7.66667C6.20021 7.16667 6.37521 6.74167 6.72521 6.39167C7.07521 6.04167 7.50021 5.86667 8.00021 5.86667C8.50021 5.86667 8.92521 6.04167 9.27521 6.39167C9.62521 6.74167 9.80021 7.16667 9.80021 7.66667C9.80021 8.16667 9.62521 8.59167 9.27521 8.94167C8.92521 9.29167 8.50021 9.46667 8.00021 9.46667C7.50021 9.46667 7.07521 9.29167 6.72521 8.94167ZM3.81055 11.0647C2.54988 10.219 1.62166 9.08633 1.02588 7.66667C1.62166 6.247 2.54955 5.11433 3.80955 4.26867C5.06966 3.42289 6.46627 3 7.99938 3C9.53238 3 10.9292 3.42289 12.1899 4.26867C13.4505 5.11433 14.3788 6.247 14.9745 7.66667C14.3788 9.08633 13.4509 10.219 12.1909 11.0647C10.9308 11.9104 9.53416 12.3333 8.00105 12.3333C6.46805 12.3333 5.07121 11.9104 3.81055 11.0647ZM11.4585 10.3417C12.5085 9.68055 13.3113 8.78889 13.8669 7.66667C13.3113 6.54444 12.5085 5.65278 11.4585 4.99167C10.4085 4.33056 9.25577 4 8.00021 4C6.74466 4 5.59188 4.33056 4.54188 4.99167C3.49188 5.65278 2.6891 6.54444 2.13355 7.66667C2.6891 8.78889 3.49188 9.68055 4.54188 10.3417C5.59188 11.0028 6.74466 11.3333 8.00021 11.3333C9.25577 11.3333 10.4085 11.0028 11.4585 10.3417Z" fill="#0047A3"/>
</svg>
