<svg width="16" height="16" viewBox="0 0 16 16" fill="none" xmlns="http://www.w3.org/2000/svg">
<mask id="mask0_467_33950" style="mask-type:alpha" maskUnits="userSpaceOnUse" x="0" y="0" width="16" height="16">
<rect width="16" height="16" fill="#D9D9D9"/>
</mask>
<g mask="url(#mask0_467_33950)">
<path d="M9.92636 9.67487C10.4541 9.1461 10.718 8.50399 10.718 7.74854C10.718 6.9931 10.4536 6.35149 9.92486 5.82371C9.39609 5.29593 8.75397 5.03204 7.99853 5.03204C7.24309 5.03204 6.60147 5.29643 6.0737 5.82521C5.54592 6.35399 5.28203 6.9961 5.28203 7.75154C5.28203 8.50699 5.54642 9.1486 6.0752 9.67637C6.60397 10.2042 7.24609 10.468 8.00153 10.468C8.75697 10.468 9.39859 10.2037 9.92636 9.67487ZM6.72503 9.02504C6.37503 8.67504 6.20003 8.25004 6.20003 7.75004C6.20003 7.25004 6.37503 6.82504 6.72503 6.47504C7.07503 6.12504 7.50003 5.95004 8.00003 5.95004C8.50003 5.95004 8.92503 6.12504 9.27503 6.47504C9.62503 6.82504 9.80003 7.25004 9.80003 7.75004C9.80003 8.25004 9.62503 8.67504 9.27503 9.02504C8.92503 9.37504 8.50003 9.55004 8.00003 9.55004C7.50003 9.55004 7.07503 9.37504 6.72503 9.02504ZM3.81036 11.148C2.5497 10.3024 1.62147 9.16971 1.0257 7.75004C1.62147 6.33037 2.54936 5.19771 3.80936 4.35204C5.06947 3.50626 6.46609 3.08337 7.9992 3.08337C9.5322 3.08337 10.929 3.50626 12.1897 4.35204C13.4504 5.19771 14.3786 6.33037 14.9744 7.75004C14.3786 9.16971 13.4507 10.3024 12.1907 11.148C10.9306 11.9938 9.53397 12.4167 8.00086 12.4167C6.46786 12.4167 5.07103 11.9938 3.81036 11.148Z" fill="#314158"/>
</g>
</svg>
