<svg width="12" height="12" viewBox="0 0 24 24" fill="none" xmlns="http://www.w3.org/2000/svg">
<path d="M12 22q-2.075 0-3.9-.788t-3.175-2.137Q3.575 17.725 2.788 15.9T2 12t.788-3.9 2.137-3.175Q6.275 3.575 8.1 2.788T12 2t3.9.788 3.175 2.137q1.35 1.35 2.138 3.175T22 12t-.787 3.9-2.138 3.175q-1.35 1.35-3.175 2.138T12 22zm0-1q1.5 0 2.9-.588t2.45-1.612q-.75-.975-1.763-1.638T13.1 16.4q-1.025-.425-2.1-.413t-2.2.413q-.975.35-1.938 1.012T4.95 18.8Q6.3 20.2 7.9 20.6T12 21zm0-9q.825 0 1.413-.587T14 10t-.587-1.412T12 8t-1.412.588T10 10t.588 1.413T12 12zm-4.3 5.4q1.1-.5 2.2-.725T12 16.45t2.125.225 2.2.725Q17.475 16.1 18 14.9T18.5 12q0-2.7-1.9-4.6T12 5.5 7.4 7.4 5.5 12q0 1.5.5 2.75T7.7 17.4z" fill="currentColor"/>
</svg>