<svg width="12" height="12" viewBox="0 0 24 24" fill="none" xmlns="http://www.w3.org/2000/svg">
<path d="M12 22q-2.075 0-3.9-.788t-3.175-2.137Q3.575 17.725 2.788 15.9T2 12t.788-3.9 2.137-3.175Q6.275 3.575 8.1 2.788T12 2t3.9.788 3.175 2.137q1.35 1.35 2.138 3.175T22 12t-.787 3.9-2.138 3.175q-1.35 1.35-3.175 2.138T12 22zM7.3 17.375q.725-1 1.775-1.687T12 15t2.925.688 1.775 1.687Q17.7 16.1 18.388 14.7T19 12q0-2.925-2.038-4.962T12 5 7.038 7.038 5 12q0 1.525.613 2.9T7.3 17.375zM12 13q-1.125 0-1.912-.788T9.3 10.3t.788-1.912T12 7.6t1.913.788.787 1.912-.787 1.912T12 13z" fill="#314158"/>
</svg>
