<svg width="12" height="12" viewBox="0 0 24 24" fill="none" xmlns="http://www.w3.org/2000/svg">
<path d="M17 22q-2.075 0-3.537-1.462T12 17t1.463-3.537T17 12t3.538 1.463T22 17t-1.462 3.538T17 22zm0-2q1.25 0 2.125-.875T20 17t-.875-2.125T17 14t-2.125.875T14 17t.875 2.125T17 20zM10 12q-1.65 0-2.825-1.175T6 8t1.175-2.825T10 4t2.825 1.175T14 8t-1.175 2.825T10 12zm0-2q.825 0 1.413-.587T12 8t-.587-1.412T10 6t-1.412.588T8 8t.588 1.413T10 10zm-8 10v-2.8q0-.85.438-1.562T3.6 14.55q1.225-.6 2.55-.975T9 13.175v2.05q-1.1.175-2.1.55T5.15 16.8q-.225.15-.188.35T5 17.25V20zm15-5h-2v4l3 2 1-1.5-2-1.25z" fill="#314158"/>
</svg>
