<svg width="12" height="12" viewBox="0 0 12 12" fill="none" xmlns="http://www.w3.org/2000/svg">
<mask id="mask0_322_48569" style="mask-type:alpha" maskUnits="userSpaceOnUse" x="0" y="0" width="12" height="12">
<rect width="12" height="12" fill="#D9D9D9"/>
</mask>
<g mask="url(#mask0_322_48569)">
<path d="M2.59588 10.6154C2.47105 10.6154 2.35955 10.5652 2.26138 10.4649C2.1633 10.3646 2.11426 10.2526 2.11426 10.1289V8.91677C2.11426 8.2241 2.32963 7.61227 2.76038 7.08127C3.19113 6.55027 3.74497 6.21164 4.42188 6.06539C4.11297 6.28206 3.87355 6.55481 3.70363 6.88364C3.53372 7.21248 3.44876 7.56489 3.44876 7.94089V10.1279C3.44876 10.2123 3.46126 10.2967 3.48626 10.381C3.51126 10.4654 3.54976 10.5436 3.60176 10.6154H2.59588ZM4.29188 10.6154C4.16113 10.6154 4.04772 10.5671 3.95163 10.4705C3.85555 10.374 3.80751 10.2601 3.80751 10.1289V7.94139C3.80751 7.39973 3.99692 6.94073 4.37576 6.56439C4.75459 6.18814 5.21484 6.00002 5.75651 6.00002H7.94001C8.47917 6.00002 8.93693 6.18814 9.31326 6.56439C9.68951 6.94073 9.87763 7.39973 9.87763 7.94139V8.67402C9.87763 9.21569 9.68951 9.67464 9.31326 10.0509C8.93693 10.4272 8.47792 10.6154 7.93626 10.6154H4.29188ZM5.99976 5.02689C5.49259 5.02689 5.0623 4.85048 4.70888 4.49764C4.35538 4.14473 4.17863 3.7141 4.17863 3.20577C4.17863 2.69744 4.35538 2.26685 4.70888 1.91402C5.0623 1.5611 5.49259 1.38464 5.99976 1.38464C6.50692 1.38464 6.93722 1.5611 7.29063 1.91402C7.64413 2.26685 7.82088 2.69744 7.82088 3.20577C7.82088 3.7141 7.64413 4.14473 7.29063 4.49764C6.93722 4.85048 6.50692 5.02689 5.99976 5.02689Z" fill="#314158"/>
</g>
</svg>
