<svg width="12" height="12" viewBox="0 0 12 12" fill="none" xmlns="http://www.w3.org/2000/svg">
<mask id="mask0_322_48601" style="mask-type:alpha" maskUnits="userSpaceOnUse" x="0" y="0" width="12" height="12">
<rect width="12" height="12" fill="#D9D9D9"/>
</mask>
<g mask="url(#mask0_322_48601)">
<path d="M4.23075 10.25L1.75 7.76925V4.23075L4.23075 1.75H7.76925L10.25 4.23075V7.76925L7.76925 10.25H4.23075ZM4.575 7.95188L6 6.52688L7.425 7.95188L7.95188 7.425L6.52688 6L7.95188 4.575L7.425 4.04812L6 5.47312L4.575 4.04812L4.04813 4.575L5.47313 6L4.04813 7.425L4.575 7.95188ZM4.55 9.5H7.45L9.5 7.45V4.55L7.45 2.5H4.55L2.5 4.55V7.45L4.55 9.5Z" fill="#314158"/>
</g>
</svg>
