<svg width="12" height="12" viewBox="0 0 12 12" fill="none" xmlns="http://www.w3.org/2000/svg">
<mask id="mask0_322_48565" style="mask-type:alpha" maskUnits="userSpaceOnUse" x="0" y="0" width="12" height="12">
<rect width="12" height="12" fill="#D9D9D9"/>
</mask>
<g mask="url(#mask0_322_48565)">
<path d="M5.54813 5.45188V2.25H10.75V5.45188H5.54813ZM1.25 9.75V6.54813H5.95188V9.75H1.25ZM1.25 5.45188V2.25H4.45187V5.45188H1.25ZM8.43262 10.7019L8.33075 10.1058C8.20192 10.0673 8.08092 10.0188 7.96775 9.96012C7.85467 9.90146 7.74746 9.82438 7.64613 9.72888L7.075 9.925L6.69037 9.29612L7.15 8.90188C7.11408 8.76154 7.09613 8.62117 7.09613 8.48075C7.09613 8.34033 7.11408 8.19996 7.15 8.05963L6.69037 7.66538L7.075 7.0365L7.64613 7.23275C7.74421 7.13717 7.85062 7.06008 7.96537 7.0015C8.08012 6.94283 8.20192 6.89425 8.33075 6.85575L8.43262 6.25962H9.18262L9.28463 6.85575C9.41346 6.89425 9.53525 6.94283 9.65 7.0015C9.76475 7.06008 9.87117 7.13717 9.96925 7.23275L10.5404 7.0365L10.925 7.66538L10.4654 8.05963C10.5013 8.19996 10.5192 8.34033 10.5192 8.48075C10.5192 8.62117 10.5013 8.76154 10.4654 8.90188L10.925 9.29612L10.5404 9.925L9.96925 9.72888C9.86792 9.82438 9.76071 9.90146 9.64762 9.96012C9.53446 10.0188 9.41346 10.0673 9.28463 10.1058L9.18262 10.7019H8.43262ZM9.54275 9.21588C9.745 9.01363 9.84613 8.76858 9.84613 8.48075C9.84613 8.19292 9.745 7.94788 9.54275 7.74563C9.3405 7.54338 9.09546 7.44225 8.80762 7.44225C8.51987 7.44225 8.27488 7.54338 8.07263 7.74563C7.87038 7.94788 7.76925 8.19292 7.76925 8.48075C7.76925 8.76858 7.87038 9.01363 8.07263 9.21588C8.27488 9.41813 8.51987 9.51925 8.80762 9.51925C9.09546 9.51925 9.3405 9.41813 9.54275 9.21588Z" fill="#314158"/>
</g>
</svg>
