<svg width="12" height="12" viewBox="0 0 24 24" fill="none" xmlns="http://www.w3.org/2000/svg">
<path d="M13 2.05V4.1q2.4.35 4.138 2.025T19.5 10.4h2.1q-.35-3.1-2.45-5.288T13 2.05zm2.475 18.45q-1.25.45-2.575.65t-2.65-.2q-2.4-.4-4.225-2.125T3.9 14.6H1.8q.4 3.25 2.637 5.463T10 22.95q1.35.3 2.738.163t2.637-.613l-1.5-1.9zM3.9 13.6q.2-1.5.85-2.85t1.65-2.35L4.975 6.975q-1.3 1.3-2.163 2.987T1.8 13.6zm3.65-7.35 1.425 1.425q.975-.825 2.1-1.325T13 5.9V3.8q-1.35.1-2.625.625T7.55 6.25z" fill="#314158"/>
</svg>
