<svg width="12" height="12" viewBox="0 0 12 12" fill="none" xmlns="http://www.w3.org/2000/svg">
<mask id="mask0_322_48594" style="mask-type:alpha" maskUnits="userSpaceOnUse" x="0" y="0" width="12" height="12">
<rect width="12" height="12" fill="#D9D9D9"/>
</mask>
<g mask="url(#mask0_322_48594)">
<path d="M4.49903 9.80763C4.27695 9.80763 4.08682 9.72855 3.92866 9.57038C3.77049 9.41222 3.69141 9.22209 3.69141 9.00001C3.69141 8.77792 3.77049 8.5878 3.92866 8.42963C4.08682 8.27147 4.27695 8.19238 4.49903 8.19238C4.72111 8.19238 4.91124 8.27147 5.06941 8.42963C5.22757 8.5878 5.30666 8.77792 5.30666 9.00001C5.30666 9.22209 5.22757 9.41222 5.06941 9.57038C4.91124 9.72855 4.72111 9.80763 4.49903 9.80763ZM7.49903 9.80763C7.27695 9.80763 7.08682 9.72855 6.92866 9.57038C6.77049 9.41222 6.69141 9.22209 6.69141 9.00001C6.69141 8.77792 6.77049 8.5878 6.92866 8.42963C7.08682 8.27147 7.27695 8.19238 7.49903 8.19238C7.72111 8.19238 7.91124 8.27147 8.06941 8.42963C8.22757 8.5878 8.30666 8.77792 8.30666 9.00001C8.30666 9.22209 8.22757 9.41222 8.06941 9.57038C7.91124 9.72855 7.72111 9.80763 7.49903 9.80763ZM4.49903 6.80763C4.27695 6.80763 4.08682 6.72855 3.92866 6.57038C3.77049 6.41222 3.69141 6.22209 3.69141 6.00001C3.69141 5.77792 3.77049 5.5878 3.92866 5.42963C4.08682 5.27147 4.27695 5.19238 4.49903 5.19238C4.72111 5.19238 4.91124 5.27147 5.06941 5.42963C5.22757 5.5878 5.30666 5.77792 5.30666 6.00001C5.30666 6.22209 5.22757 6.41222 5.06941 6.57038C4.91124 6.72855 4.72111 6.80763 4.49903 6.80763ZM7.49903 6.80763C7.27695 6.80763 7.08682 6.72855 6.92866 6.57038C6.77049 6.41222 6.69141 6.22209 6.69141 6.00001C6.69141 5.77792 6.77049 5.5878 6.92866 5.42963C7.08682 5.27147 7.27695 5.19238 7.49903 5.19238C7.72111 5.19238 7.91124 5.27147 8.06941 5.42963C8.22757 5.5878 8.30666 5.77792 8.30666 6.00001C8.30666 6.22209 8.22757 6.41222 8.06941 6.57038C7.91124 6.72855 7.72111 6.80763 7.49903 6.80763ZM4.49903 3.80763C4.27695 3.80763 4.08682 3.72855 3.92866 3.57038C3.77049 3.41222 3.69141 3.22209 3.69141 3.00001C3.69141 2.77792 3.77049 2.5878 3.92866 2.42963C4.08682 2.27147 4.27695 2.19238 4.49903 2.19238C4.72111 2.19238 4.91124 2.27147 5.06941 2.42963C5.22757 2.5878 5.30666 2.77792 5.30666 3.00001C5.30666 3.22209 5.22757 3.41222 5.06941 3.57038C4.91124 3.72855 4.72111 3.80763 4.49903 3.80763ZM7.49903 3.80763C7.27695 3.80763 7.08682 3.72855 6.92866 3.57038C6.77049 3.41222 6.69141 3.22209 6.69141 3.00001C6.69141 2.77792 6.77049 2.5878 6.92866 2.42963C7.08682 2.27147 7.27695 2.19238 7.49903 2.19238C7.72111 2.19238 7.91124 2.27147 8.06941 2.42963C8.22757 2.5878 8.30666 2.77792 8.30666 3.00001C8.30666 3.22209 8.22757 3.41222 8.06941 3.57038C7.91124 3.72855 7.72111 3.80763 7.49903 3.80763Z" fill="#314158"/>
</g>
</svg>
