<svg width="12" height="12" viewBox="0 0 24 24" fill="none" xmlns="http://www.w3.org/2000/svg">
<path d="M12 21l-1.45-1.3Q7.55 17.1 5.525 14.9T3.5 11.075q0-2.45 1.638-4.013T9.075 5.5q1.3 0 2.462.563T13.5 7.6q.8-.975 1.963-1.537T17.925 5.5q2.225 0 3.9 1.562T23.5 11.075q0 1.65-1.025 3.2T20 17.65zm0-2.1 6.5-5.15q.8-.65 1.15-1.463T20 11.075q0-1.625-1.062-2.6T16.5 7.5q-1.025 0-1.962.55T12.8 9.65h-.825q-.55-1.1-1.625-1.625T7.8 7.5q-1.525 0-2.6.963T4.1 11.075q0 .925.35 1.75t1.15 1.562L12 18.9z" fill="currentColor"/>
</svg>