<svg width="12" height="12" viewBox="0 0 12 12" fill="none" xmlns="http://www.w3.org/2000/svg">
<mask id="mask0_322_48586" style="mask-type:alpha" maskUnits="userSpaceOnUse" x="0" y="0" width="12" height="12">
<rect width="12" height="12" fill="#D9D9D9"/>
</mask>
<g mask="url(#mask0_322_48586)">
<path d="M1.75 10.25V1.75H10.25V10.25H1.75ZM2.5 9.5H4.33075V7.66925H2.5V9.5ZM5.08075 9.5H6.91925V7.66925H5.08075V9.5ZM7.66925 9.5H9.5V7.66925H7.66925V9.5ZM2.5 6.91925H4.33075V5.08075H2.5V6.91925ZM5.08075 6.91925H6.91925V5.08075H5.08075V6.91925ZM7.66925 6.91925H9.5V5.08075H7.66925V6.91925ZM2.5 4.33075H4.33075V2.5H2.5V4.33075ZM5.08075 4.33075H6.91925V2.5H5.08075V4.33075ZM7.66925 4.33075H9.5V2.5H7.66925V4.33075Z" fill="#314158"/>
</g>
</svg>
