<svg width="12" height="12" viewBox="0 0 24 24" fill="none" xmlns="http://www.w3.org/2000/svg">
<path d="M11.95 18.225q.525 0 .888-.362t.362-.888-.362-.888-.888-.362-.887.362-.363.888.363.887.887.363zM11 14.4h2q0-.975.275-1.6T14.6 11.4q.75-.65 1.075-1.263T16 8.95q0-1.625-1.062-2.637T12.05 5.3q-1.525 0-2.538.837T8.075 8.25L9.9 9.05q.275-.95.75-1.462T12.05 7.1q.875 0 1.413.488T14 8.9q0 .55-.3 1.012T12.6 11.05q-1 .9-1.3 1.613T11 14.4zM12 22q-2.075 0-3.9-.788t-3.175-2.137Q3.575 17.725 2.788 15.9T2 12t.788-3.9 2.137-3.175Q6.275 3.575 8.1 2.788T12 2t3.9.788 3.175 2.137q1.35 1.35 2.138 3.175T22 12t-.787 3.9-2.138 3.175q-1.35 1.35-3.175 2.138T12 22z" fill="currentColor"/>
</svg>