<svg width="12" height="12" viewBox="0 0 12 12" fill="none" xmlns="http://www.w3.org/2000/svg">
<mask id="mask0_322_48567" style="mask-type:alpha" maskUnits="userSpaceOnUse" x="0" y="0" width="12" height="12">
<rect width="12" height="12" fill="#D9D9D9"/>
</mask>
<g mask="url(#mask0_322_48567)">
<path d="M6.63895 5.66775C6.81562 5.49117 6.90395 5.27821 6.90395 5.02888C6.90395 4.77954 6.81562 4.56654 6.63895 4.38988C6.46237 4.21329 6.24941 4.125 6.00007 4.125C5.75074 4.125 5.53778 4.21329 5.3612 4.38988C5.18453 4.56654 5.0962 4.77954 5.0962 5.02888C5.0962 5.27821 5.18453 5.49117 5.3612 5.66775C5.53778 5.84433 5.75074 5.93262 6.00007 5.93262C6.24941 5.93262 6.46237 5.84433 6.63895 5.66775ZM6.00007 10.7548C4.74174 9.66442 3.79816 8.64971 3.16932 7.71062C2.54049 6.77146 2.22607 5.90925 2.22607 5.124C2.22607 3.97017 2.59928 3.03604 3.3457 2.32162C4.0922 1.60721 4.97699 1.25 6.00007 1.25C7.02316 1.25 7.90795 1.60721 8.65445 2.32162C9.40087 3.03604 9.77407 3.97017 9.77407 5.124C9.77407 5.90925 9.45966 6.77146 8.83082 7.71062C8.20199 8.64971 7.25841 9.66442 6.00007 10.7548Z" fill="#314158"/>
</g>
</svg>
