<svg width="12" height="12" viewBox="0 0 12 12" fill="none" xmlns="http://www.w3.org/2000/svg">
<mask id="mask0_322_48574" style="mask-type:alpha" maskUnits="userSpaceOnUse" x="0" y="0" width="12" height="12">
<rect width="12" height="12" fill="#D9D9D9"/>
</mask>
<g mask="url(#mask0_322_48574)">
<path d="M1.92809 9.37012C1.65567 9.09771 1.51946 8.766 1.51946 8.375H0.67334V2.25H8.38484V4.15387H9.71171L11.3271 6.31738V8.375H10.4233C10.4233 8.766 10.2871 9.09771 10.0146 9.37012C9.74217 9.64262 9.41047 9.77887 9.01947 9.77887C8.62847 9.77887 8.29672 9.64262 8.02422 9.37012C7.7518 9.09771 7.61559 8.766 7.61559 8.375H4.32709C4.32709 8.766 4.19088 9.09771 3.91846 9.37012C3.64605 9.64262 3.31434 9.77887 2.92334 9.77887C2.53226 9.77887 2.20051 9.64262 1.92809 9.37012ZM3.38771 8.83938C3.51396 8.71313 3.57709 8.55833 3.57709 8.375C3.57709 8.19167 3.51396 8.03683 3.38771 7.9105C3.26146 7.78425 3.10667 7.72113 2.92334 7.72113C2.74001 7.72113 2.58517 7.78425 2.45884 7.9105C2.33259 8.03683 2.26946 8.19167 2.26946 8.375C2.26946 8.55833 2.33259 8.71313 2.45884 8.83938C2.58517 8.96571 2.74001 9.02887 2.92334 9.02887C3.10667 9.02887 3.26146 8.96571 3.38771 8.83938ZM9.48384 8.83938C9.61017 8.71313 9.67334 8.55833 9.67334 8.375C9.67334 8.19167 9.61017 8.03683 9.48384 7.9105C9.35759 7.78425 9.2028 7.72113 9.01947 7.72113C8.83613 7.72113 8.6813 7.78425 8.55497 7.9105C8.42872 8.03683 8.36559 8.19167 8.36559 8.375C8.36559 8.55833 8.42872 8.71313 8.55497 8.83938C8.6813 8.96571 8.83613 9.02887 9.01947 9.02887C9.2028 9.02887 9.35759 8.96571 9.48384 8.83938ZM8.38484 6.625H10.6252L9.32709 4.90388H8.38484V6.625Z" fill="#314158"/>
</g>
</svg>
