<svg width="12" height="12" viewBox="0 0 12 12" fill="none" xmlns="http://www.w3.org/2000/svg">
<mask id="mask0_322_48572" style="mask-type:alpha" maskUnits="userSpaceOnUse" x="0" y="0" width="12" height="12">
<rect width="12" height="12" fill="#D9D9D9"/>
</mask>
<g mask="url(#mask0_322_48572)">
<path d="M4 9.25C3.09467 9.25 2.32667 8.93475 1.696 8.30425C1.06533 7.67383 0.75 6.90604 0.75 6.00088C0.75 5.09579 1.06533 4.32771 1.696 3.69662C2.32667 3.06554 3.09467 2.75 4 2.75H8C8.90533 2.75 9.67333 3.06525 10.304 3.69575C10.9347 4.32617 11.25 5.09396 11.25 5.99913C11.25 6.90421 10.9347 7.67229 10.304 8.30337C9.67333 8.93446 8.90533 9.25 8 9.25H4ZM4.5 5.625C4.5 6.10125 4.658 6.52017 4.974 6.88175C5.29008 7.24325 5.63208 7.57754 6 7.88462C6.36792 7.57754 6.70992 7.24325 7.026 6.88175C7.342 6.52017 7.5 6.10125 7.5 5.625C7.5 5.20958 7.35392 4.85575 7.06175 4.5635C6.76958 4.27117 6.41588 4.125 6.00063 4.125C5.58546 4.125 5.23158 4.27117 4.939 4.5635C4.64633 4.85575 4.5 5.20958 4.5 5.625ZM5.64375 5.85625C5.54792 5.76042 5.5 5.64167 5.5 5.5C5.5 5.35833 5.54792 5.23958 5.64375 5.14375C5.73958 5.04792 5.85833 5 6 5C6.14167 5 6.26042 5.04792 6.35625 5.14375C6.45208 5.23958 6.5 5.35833 6.5 5.5C6.5 5.64167 6.45208 5.76042 6.35625 5.85625C6.26042 5.95208 6.14167 6 6 6C5.85833 6 5.73958 5.95208 5.64375 5.85625Z" fill="#314158"/>
</g>
</svg>
