<svg width="12" height="12" viewBox="0 0 24 24" fill="none" xmlns="http://www.w3.org/2000/svg">
<path d="M12 12q-1.65 0-2.825-1.175T8 8t1.175-2.825T12 4t2.825 1.175T16 8t-1.175 2.825T12 12zm-8 8v-2.8q0-.85.438-1.562T5.6 14.55q1.35-.675 2.8-1.062T11 13.075v2.15q-1.275.3-2.425.9T6.575 17.55q-.25.25-.413.587T6 18.8V20zm9-1 .35-1.65q-.425-.2-.75-.463T12 18.25l-1.575.55-.75-1.35 1.25-1.125q-.075-.225-.075-.525t.075-.525L9.675 14.15l.75-1.325 1.575.55q.3-.25.625-.488t.75-.437L13.7 11h1.5l.35 1.65q.425.2.763.437t.637.488l1.575-.55.75 1.325-1.25 1.125q.075.225.075.525t-.075.525l1.25 1.125-.75 1.35-1.575-.55q-.3.25-.625.463t-.75.437L16.5 21zM15 19q.425 0 .713-.288T16 18t-.287-.712T15 17t-.712.288T14 18t.288.713T15 19z" fill="#314158"/>
</svg>
