<svg width="12" height="12" viewBox="0 0 12 12" fill="none" xmlns="http://www.w3.org/2000/svg">
<mask id="mask0_322_48582" style="mask-type:alpha" maskUnits="userSpaceOnUse" x="0" y="0" width="12" height="12">
<rect width="12" height="12" fill="#62748E"/>
</mask>
<g mask="url(#mask0_322_48582)">
<path d="M2.25 9.44225V8.69238H3.15387V4.9615C3.15387 4.28908 3.36142 3.69454 3.7765 3.17787C4.1915 2.66121 4.72433 2.33075 5.375 2.1865V1.25H6.625V2.1865C7.27567 2.33075 7.8085 2.66121 8.2235 3.17787C8.63858 3.69454 8.84613 4.28908 8.84613 4.9615V8.69238H9.75V9.44225H2.25ZM5.99913 10.8461C5.75038 10.8461 5.53771 10.7576 5.36113 10.5806C5.18446 10.4036 5.09613 10.1908 5.09613 9.94225H6.90387C6.90387 10.1917 6.81529 10.4047 6.63812 10.5813C6.46096 10.7578 6.24796 10.8461 5.99913 10.8461ZM3.90387 8.69238H8.09613V4.9615C8.09613 4.38267 7.8915 3.88862 7.48225 3.47937C7.07292 3.07004 6.57883 2.86537 6 2.86537C5.42117 2.86537 4.92708 3.07004 4.51775 3.47937C4.1085 3.88862 3.90387 4.38267 3.90387 4.9615V8.69238Z" fill="#314158"/>
</g>
</svg>
