<svg width="12" height="12" viewBox="0 0 24 24" fill="none" xmlns="http://www.w3.org/2000/svg">
<path d="M1 18v-2.575q0-.8.425-1.413T2.55 13.1q1.45-.65 2.838-.975T8 11.8t2.613.325 2.837.975q.7.35 1.125.963T15 15.425V18zm16 0v-2.55q0-1.025-.537-1.875T15 12.05q1.2.2 2.25.587T19.15 13.5q.55.35.7.938T20 15.45V18zm-9-7q-1.65 0-2.825-1.175T4 8t1.175-2.825T8 4t2.825 1.175T12 8t-1.175 2.825T8 11zm9.5-3q0 1.65-1.175 2.825T14 12q-.2 0-.437-.025t-.463-.075q.7-.7 1.1-1.65T14.5 8t-.4-2.25T13 4.1q.2-.05.5-.075T14 4q1.65 0 2.825 1.175T17.5 8z" fill="currentColor"/>
</svg>