<svg width="12" height="12" viewBox="0 0 24 24" fill="none" xmlns="http://www.w3.org/2000/svg">
<path d="M1 20v-2.8q0-.825.425-1.55T2.6 14.55q1.55-.775 3.15-1.163T9 13t3.25.388 3.15 1.162q.75.375 1.175 1.1T17 17.2V20zm18 0v-2.8q0-1.35-.687-2.388T16.5 13.15q1.35.2 2.588.713T21.4 15.05q.6.525.6 1.25V20zM9 12q-1.65 0-2.825-1.175T5 8t1.175-2.825T9 4t2.825 1.175T13 8t-1.175 2.825T9 12zm10-4q0 1.65-1.175 2.825T15 12q-.275 0-.7-.062t-.7-.138q.675-.8 1.038-1.775T15 8t-.362-2.025T13.6 4.2q.35-.125.7-.163T15 4q1.65 0 2.825 1.175T19 8z" fill="#314158"/>
</svg>
