<svg width="12" height="12" viewBox="0 0 24 24" fill="none" xmlns="http://www.w3.org/2000/svg">
<path d="M1 18v-2.575q0-.8.425-1.413T2.55 13.1q1.45-.65 2.838-.975T8 11.8t2.613.325 2.837.975q.7.35 1.125.963T15 15.425V18zm1-1h12v-1.575q0-.375-.187-.637T13.35 14.4q-1.3-.6-2.675-.9T8 13.2t-2.675.3T2.65 14.4q-.3.175-.475.438T2 15.425V17zm5-7q1.25 0 2.125-.875T10 7t-.875-2.125T8 4 5.875 4.875 5 7t.875 2.125T8 10zm0-1q-.825 0-1.413-.587T6 7t.588-1.413T8 5t1.413.588T10 7t-.587 1.413T8 9zm9.5-1q0 1.65-1.175 2.825T14 12q-.2 0-.437-.025t-.463-.075q.65-.7 1.075-1.65T14.5 8t-.4-2.25T13 4.1q.2-.05.5-.075T14 4q1.65 0 2.825 1.175T17.5 8zm-2.5 9h6v-1.55q0-.35-.175-.612T20.35 14.4q-.8-.375-1.625-.6T17 13.5q-.25 0-.488.013T16.1 13.6v-1q.5-.1.975-.15T18 12.4q1.175 0 2.412.3T22.35 13.6q.7.35 1.025.963T24 15.95V18h-9v-1z" fill="currentColor"/>
</svg>