<svg width="12" height="12" viewBox="0 0 24 24" fill="none" xmlns="http://www.w3.org/2000/svg">
<path d="M12 12q-1.65 0-2.825-1.175T8 8t1.175-2.825T12 5t2.825 1.175T16 8t-1.175 2.825T12 12zm0-1q1.25 0 2.125-.875T15 8t-.875-2.125T12 5t-2.125.875T9 8t.875 2.125T12 11zm-8 8v-2.8q0-.85.438-1.55T5.6 13.55q1.5-.75 3.087-1.125T12 12.05t3.313.375 3.087 1.125q.725.4 1.162 1.1T20 16.2V19zm1-1h14v-1.8q0-.35-.175-.637T18.35 15.1q-1.35-.7-2.812-1.038T12 13.725t-2.938.338T6.25 15.1q-.3.175-.475.462T5.6 16.2V18zm7-7z" fill="currentColor"/>
</svg>