<svg width="12" height="12" viewBox="0 0 12 12" fill="none" xmlns="http://www.w3.org/2000/svg">
<mask id="mask0_322_48593" style="mask-type:alpha" maskUnits="userSpaceOnUse" x="0" y="0" width="12" height="12">
<rect width="12" height="12" fill="#D9D9D9"/>
</mask>
<g mask="url(#mask0_322_48593)">
<path d="M6.01953 9.75C4.97261 9.75 4.08591 9.38679 3.35941 8.66037C2.63282 7.93396 2.26953 7.04742 2.26953 6.00075C2.26953 4.95408 2.63282 4.06729 3.35941 3.34037C4.08591 2.61346 4.97261 2.25 6.01953 2.25C6.60411 2.25 7.15732 2.37996 7.67916 2.63988C8.20091 2.89988 8.63487 3.26671 8.98103 3.74037V2.25H9.73103V5.30762H6.67341V4.55775H8.64841C8.38491 4.075 8.01949 3.69471 7.55216 3.41687C7.08491 3.13896 6.57403 3 6.01953 3C5.1862 3 4.47786 3.29167 3.89453 3.875C3.3112 4.45833 3.01953 5.16667 3.01953 6C3.01953 6.83333 3.3112 7.54167 3.89453 8.125C4.47786 8.70833 5.1862 9 6.01953 9C6.6612 9 7.24036 8.81667 7.75703 8.45C8.2737 8.08333 8.6362 7.6 8.84453 7H9.63491C9.40799 7.816 8.96103 8.47833 8.29403 8.987C7.62703 9.49567 6.86886 9.75 6.01953 9.75Z" fill="#314158"/>
</g>
</svg>
