<svg width="12" height="12" viewBox="0 0 24 24" fill="none" xmlns="http://www.w3.org/2000/svg">
<path d="M10.825 22l-.35-2.8q-.325-.125-.625-.3t-.575-.375L6.75 19.7l-2.15-3.7 2.25-1.7q-.025-.175-.037-.338T6.8 13.625t.013-.337.037-.338L4.6 11.25l2.15-3.7 2.525 1.175q.275-.2.575-.375t.625-.3L10.825 6h4.35l.35 2.8q.325.125.625.3t.575.375L19.25 8.3l2.15 3.7-2.25 1.7q.025.175.038.338t.012.337-.012.338-.038.337l2.25 1.7-2.15 3.7-2.525-1.175q-.275.2-.575.375t-.625.3L15.175 22zM12 15.5q1.45 0 2.475-1.025T15.5 12t-1.025-2.475T12 8.5t-2.475 1.025T8.5 12t1.025 2.475T12 15.5zm0-1q-1.05 0-1.775-.725T9.5 12t.725-1.775T12 9.5t1.775.725T14.5 12t-.725 1.775T12 14.5zM12 12zm-.35 8.95h.7l.45-3.5q.75-.225 1.35-.612t1.1-.913l3.25 1.4.35-.7-2.9-2.2q.075-.35.1-.688T16.075 13t-.025-.737-.1-.688l2.9-2.2-.35-.7-3.25 1.4q-.5-.525-1.1-.913T12.8 8.55L12.35 5h-.7l-.45 3.5q-.75.225-1.35.612t-1.1.913L5.5 8.625l-.35.7 2.9 2.2q-.075.35-.1.688T7.925 13t.025.738.1.687l-2.9 2.2.35.7 3.25-1.4q.5.525 1.1.912t1.35.613z" fill="currentColor"/>
</svg>