<svg width="12" height="12" viewBox="0 0 12 12" fill="none" xmlns="http://www.w3.org/2000/svg">
<mask id="mask0_322_48588" style="mask-type:alpha" maskUnits="userSpaceOnUse" x="0" y="0" width="12" height="12">
<rect width="12" height="12" fill="#D9D9D9"/>
</mask>
<g mask="url(#mask0_322_48588)">
<path d="M4.84588 10.75L4.65551 9.22688C4.52159 9.18204 4.38426 9.11925 4.24351 9.0385C4.10284 8.95767 3.97705 8.87112 3.86613 8.77887L2.45551 9.375L1.30176 7.375L2.52188 6.45288C2.51038 6.37854 2.50222 6.30388 2.49738 6.22888C2.49255 6.15388 2.49013 6.07917 2.49013 6.00475C2.49013 5.93367 2.49255 5.86142 2.49738 5.788C2.50222 5.71458 2.51038 5.63429 2.52188 5.54713L1.30176 4.625L2.45551 2.63463L3.86126 3.226C3.98184 3.1305 4.11055 3.04317 4.24738 2.964C4.38422 2.88483 4.51867 2.82121 4.65076 2.77312L4.84588 1.25H7.15363L7.34401 2.77787C7.49401 2.83237 7.62972 2.896 7.75113 2.96875C7.87263 3.0415 7.99526 3.12725 8.11901 3.226L9.54401 2.63463L10.6978 4.625L9.45838 5.5615C9.4763 5.64225 9.48609 5.71775 9.48776 5.788C9.48934 5.85817 9.49013 5.92883 9.49013 6C9.49013 6.06792 9.48851 6.137 9.48526 6.20725C9.48209 6.27742 9.47059 6.35771 9.45076 6.44813L10.6805 7.375L9.52663 9.375L8.11901 8.774C7.99526 8.87275 7.86897 8.96008 7.74013 9.036C7.6113 9.112 7.47926 9.17404 7.34401 9.22213L7.15363 10.75H4.84588ZM5.49976 10H6.48251L6.66226 8.66062C6.91742 8.59396 7.15059 8.49925 7.36176 8.3765C7.57301 8.25367 7.77672 8.09579 7.97288 7.90287L9.21513 8.425L9.70751 7.575L8.62288 6.75775C8.66455 6.62825 8.69288 6.50129 8.70788 6.37687C8.72297 6.25254 8.73051 6.12692 8.73051 6C8.73051 5.86983 8.72297 5.74421 8.70788 5.62313C8.69288 5.50196 8.66455 5.37821 8.62288 5.25188L9.71701 4.425L9.22476 3.575L7.96801 4.10475C7.80068 3.92592 7.60022 3.76792 7.36663 3.63075C7.13297 3.49358 6.89659 3.39646 6.65751 3.33938L6.49976 2H5.50751L5.34201 3.33463C5.08692 3.39488 4.85138 3.48717 4.63538 3.6115C4.4193 3.73592 4.21317 3.89617 4.01701 4.09225L2.77476 3.575L2.28251 4.425L3.36226 5.22975C3.32059 5.34842 3.29142 5.47183 3.27476 5.6C3.25809 5.72817 3.24976 5.86308 3.24976 6.00475C3.24976 6.13492 3.25809 6.2625 3.27476 6.3875C3.29142 6.5125 3.31901 6.63592 3.35751 6.75775L2.28251 7.575L2.77476 8.425L4.01226 7.9C4.20201 8.09483 4.40488 8.25446 4.62088 8.37888C4.83697 8.50321 5.07576 8.59871 5.33726 8.66537L5.49976 10ZM6.00551 7.5C6.42151 7.5 6.77551 7.354 7.06751 7.062C7.35951 6.77 7.50551 6.416 7.50551 6C7.50551 5.584 7.35951 5.23 7.06751 4.938C6.77551 4.646 6.42151 4.5 6.00551 4.5C5.58434 4.5 5.22905 4.646 4.93963 4.938C4.65022 5.23 4.50551 5.584 4.50551 6C4.50551 6.416 4.65022 6.77 4.93963 7.062C5.22905 7.354 5.58434 7.5 6.00551 7.5Z" fill="#314158"/>
</g>
</svg>
