<svg width="12" height="12" viewBox="0 0 24 24" fill="none" xmlns="http://www.w3.org/2000/svg">
<path d="M10.825 22l-.35-2.8q-.325-.125-.625-.3t-.575-.375L6.75 19.7l-2.15-3.7 2.25-1.7q-.025-.175-.037-.338T6.8 13.625t.013-.337.037-.338L4.6 11.25l2.15-3.7 2.525 1.175q.275-.2.575-.375t.625-.3L10.825 6h4.35l.35 2.8q.325.125.625.3t.575.375L19.25 8.3l2.15 3.7-2.25 1.7q.025.175.038.338t.012.337-.012.338-.038.337l2.25 1.7-2.15 3.7-2.525-1.175q-.275.2-.575.375t-.625.3L15.175 22zM12 15.5q1.45 0 2.475-1.025T15.5 12t-1.025-2.475T12 8.5t-2.475 1.025T8.5 12t1.025 2.475T12 15.5z" fill="currentColor"/>
</svg>