<svg width="12" height="12" viewBox="0 0 12 12" fill="none" xmlns="http://www.w3.org/2000/svg">
<mask id="mask0_322_48571" style="mask-type:alpha" maskUnits="userSpaceOnUse" x="0" y="0" width="12" height="12">
<rect width="12" height="12" fill="#D9D9D9"/>
</mask>
<g mask="url(#mask0_322_48571)">
<path d="M1.25 9.75V2.25H10.75V9.75H1.25ZM5.67738 5.87063C5.59121 5.78446 5.54813 5.67696 5.54813 5.54812C5.54813 5.41929 5.59121 5.31175 5.67738 5.2255C5.76363 5.13925 5.87117 5.09613 6 5.09613C6.12883 5.09613 6.23638 5.13925 6.32263 5.2255C6.40879 5.31175 6.45188 5.41929 6.45188 5.54812C6.45188 5.67696 6.40879 5.78446 6.32263 5.87063C6.23638 5.95688 6.12883 6 6 6C5.87117 6 5.76363 5.95688 5.67738 5.87063ZM6 8.25962C6.60767 7.74229 7.06088 7.26233 7.35963 6.81975C7.65829 6.37708 7.80762 5.96825 7.80762 5.59325C7.80762 5.026 7.62558 4.57537 7.2615 4.24137C6.89742 3.90737 6.47692 3.74037 6 3.74037C5.52308 3.74037 5.10258 3.90737 4.7385 4.24137C4.37442 4.57537 4.19238 5.026 4.19238 5.59325C4.19238 5.96825 4.34171 6.37708 4.64038 6.81975C4.93913 7.26233 5.39233 7.74229 6 8.25962Z" fill="#314158"/>
</g>
</svg>
