<svg width="12" height="12" viewBox="0 0 24 24" fill="none" xmlns="http://www.w3.org/2000/svg">
<path d="M23 12l-2.44-2.79.34-3.69-3.61-.82-1.89-3.2L12 2.96 8.6 1.5 6.71 4.69 3.1 5.5l.34 3.7L1 12l2.44 2.79-.34 3.7 3.61.82 1.89 3.2L12 21.04l3.4 1.46 1.89-3.2 3.61-.82-.34-3.69zm-1.58 2.21.27 3.03-2.97.68-1.56 2.63-2.78-1.2L12 19.93l-2.38 1.02-1.56-2.63-2.97-.68.27-3.04L3.5 12.78 5.36 10.6l-.27-3.04 2.97-.67 1.56-2.63L12 5.48l2.38-1.02 1.56 2.63 2.97.68-.27 3.04 1.86 2.19zm-11.45 1.29L7 11.95l1.41-1.41 2.12 2.12 4.24-4.24L16.19 9.8l-5.64 5.7z" fill="currentColor"/>
</svg>