<svg width="12" height="12" viewBox="0 0 12 12" fill="none" xmlns="http://www.w3.org/2000/svg">
<mask id="mask0_322_48678" style="mask-type:alpha" maskUnits="userSpaceOnUse" x="0" y="0" width="12" height="12">
<rect width="12" height="12" fill="#D9D9D9"/>
</mask>
<g mask="url(#mask0_322_48678)">
<path d="M7.44454 7.19362C7.84038 6.79704 8.03829 6.31546 8.03829 5.74888C8.03829 5.18229 7.84 4.70108 7.44342 4.30525C7.04684 3.90942 6.56525 3.7115 5.99867 3.7115C5.43208 3.7115 4.95088 3.90979 4.55504 4.30638C4.15921 4.70296 3.96129 5.18454 3.96129 5.75113C3.96129 6.31771 4.15958 6.79892 4.55617 7.19475C4.95275 7.59058 5.43433 7.7885 6.00092 7.7885C6.5675 7.7885 7.04871 7.59021 7.44454 7.19362ZM5.04354 6.70625C4.78104 6.44375 4.64979 6.125 4.64979 5.75C4.64979 5.375 4.78104 5.05625 5.04354 4.79375C5.30604 4.53125 5.62479 4.4 5.99979 4.4C6.37479 4.4 6.69354 4.53125 6.95604 4.79375C7.21854 5.05625 7.34979 5.375 7.34979 5.75C7.34979 6.125 7.21854 6.44375 6.95604 6.70625C6.69354 6.96875 6.37479 7.1 5.99979 7.1C5.62479 7.1 5.30604 6.96875 5.04354 6.70625ZM2.85754 8.2985C1.91204 7.66425 1.21588 6.81475 0.769043 5.75C1.21588 4.68525 1.91179 3.83575 2.85679 3.2015C3.80188 2.56717 4.84933 2.25 5.99917 2.25C7.14892 2.25 8.19654 2.56717 9.14204 3.2015C10.0875 3.83575 10.7837 4.68525 11.2305 5.75C10.7837 6.81475 10.0878 7.66425 9.14279 8.2985C8.19771 8.93283 7.15025 9.25 6.00042 9.25C4.85067 9.25 3.80304 8.93283 2.85754 8.2985Z" fill="#314158"/>
</g>
</svg>
