<svg width="12" height="12" viewBox="0 0 12 12" fill="none" xmlns="http://www.w3.org/2000/svg">
<path d="M7.44503 7.19362C7.84087 6.79704 8.03878 6.31546 8.03878 5.74888C8.03878 5.18229 7.84049 4.70108 7.44391 4.30525C7.04732 3.90942 6.56574 3.7115 5.99916 3.7115C5.43257 3.7115 4.95137 3.90979 4.55553 4.30638C4.1597 4.70296 3.96178 5.18454 3.96178 5.75113C3.96178 6.31771 4.16007 6.79892 4.55666 7.19475C4.95324 7.59058 5.43482 7.7885 6.00141 7.7885C6.56799 7.7885 7.0492 7.59021 7.44503 7.19362ZM5.04403 6.70625C4.78153 6.44375 4.65028 6.125 4.65028 5.75C4.65028 5.375 4.78153 5.05625 5.04403 4.79375C5.30653 4.53125 5.62528 4.4 6.00028 4.4C6.37528 4.4 6.69403 4.53125 6.95653 4.79375C7.21903 5.05625 7.35028 5.375 7.35028 5.75C7.35028 6.125 7.21903 6.44375 6.95653 6.70625C6.69403 6.96875 6.37528 7.1 6.00028 7.1C5.62528 7.1 5.30653 6.96875 5.04403 6.70625ZM2.85803 8.2985C1.91253 7.66425 1.21636 6.81475 0.769531 5.75C1.21636 4.68525 1.91228 3.83575 2.85728 3.2015C3.80236 2.56717 4.84982 2.25 5.99966 2.25C7.14941 2.25 8.19703 2.56717 9.14253 3.2015C10.088 3.83575 10.7842 4.68525 11.231 5.75C10.7842 6.81475 10.0883 7.66425 9.14328 8.2985C8.1982 8.93283 7.15074 9.25 6.00091 9.25C4.85116 9.25 3.80353 8.93283 2.85803 8.2985ZM8.59403 7.75625C9.38153 7.26042 9.98362 6.59167 10.4003 5.75C9.98362 4.90833 9.38153 4.23958 8.59403 3.74375C7.80653 3.24792 6.94195 3 6.00028 3C5.05862 3 4.19403 3.24792 3.40653 3.74375C2.61903 4.23958 2.01695 4.90833 1.60028 5.75C2.01695 6.59167 2.61903 7.26042 3.40653 7.75625C4.19403 8.25208 5.05862 8.5 6.00028 8.5C6.94195 8.5 7.80653 8.25208 8.59403 7.75625Z" fill="currentColor"/>
</svg>
