<svg width="12" height="12" viewBox="0 0 12 12" fill="none" xmlns="http://www.w3.org/2000/svg">
<mask id="mask0_322_48600" style="mask-type:alpha" maskUnits="userSpaceOnUse" x="0" y="0" width="12" height="12">
<rect width="12" height="12" fill="#D9D9D9"/>
</mask>
<g mask="url(#mask0_322_48600)">
<path d="M0.932617 10.25L5.99987 1.5L11.0671 10.25H0.932617ZM2.22487 9.5H9.77487L5.99987 3L2.22487 9.5ZM6.28637 8.7865C6.36462 8.70833 6.40374 8.61283 6.40374 8.5C6.40374 8.38717 6.36462 8.29167 6.28637 8.2135C6.2082 8.13525 6.1127 8.09613 5.99987 8.09613C5.88703 8.09613 5.79153 8.13525 5.71337 8.2135C5.63512 8.29167 5.59599 8.38717 5.59599 8.5C5.59599 8.61283 5.63512 8.70833 5.71337 8.7865C5.79153 8.86475 5.88703 8.90387 5.99987 8.90387C6.1127 8.90387 6.2082 8.86475 6.28637 8.7865ZM5.62487 7.59613H6.37487V5.09613H5.62487V7.59613Z" fill="#314158"/>
</g>
</svg>
